<?xml version="1.0" encoding="UTF-8" standalone="no"?>
<svg
   width="215"
   height="415"
   viewBox="0 0 215 415"
   fill="none"
   version="1.1"
   id="svg32"
   sodipodi:docname="logo.svg"
   inkscape:version="1.1.1 (1:1.1+202109281949+c3084ef5ed)"
   xmlns:inkscape="http://www.inkscape.org/namespaces/inkscape"
   xmlns:sodipodi="http://sodipodi.sourceforge.net/DTD/sodipodi-0.dtd"
   xmlns="http://www.w3.org/2000/svg"
   xmlns:svg="http://www.w3.org/2000/svg">
  <defs
     id="defs36" />
  <sodipodi:namedview
     id="namedview34"
     pagecolor="#505050"
     bordercolor="#eeeeee"
     borderopacity="1"
     inkscape:pageshadow="0"
     inkscape:pageopacity="0"
     inkscape:pagecheckerboard="0"
     showgrid="false"
     inkscape:zoom="0.61106945"
     inkscape:cx="78.55081"
     inkscape:cy="49.912494"
     inkscape:window-width="2560"
     inkscape:window-height="1016"
     inkscape:window-x="1920"
     inkscape:window-y="27"
     inkscape:window-maximized="1"
     inkscape:current-layer="svg32" />
  <g
     id="g836"
     transform="translate(-0.5,-0.5)">
    <path
       fill-rule="evenodd"
       clip-rule="evenodd"
       d="m 0.5,0.5 h 215 v 415 H 0.5 Z m 15,15 v 385 h 185 v -385 z"
       fill="#222222"
       id="path2" />
    <path
       id="path8"
       d="m 38,33 v 75.77344 H 55.15625 V 88.681641 H 68.160156 L 78.279297,108.77344 H 96.845703 L 84.15625,84.40625 C 86.59845,83.30735 88.7963,82.006 90.75,80.5 c 1.9944,-1.506 3.704306,-3.2773 5.128906,-5.3125 1.3839,-1.9944 2.441228,-4.253844 3.173828,-6.777344 0.7734,-2.5643 1.162106,-5.432622 1.162106,-8.607422 0,-4.3958 -0.773609,-8.262009 -2.320309,-11.599609 -1.506,-3.3375 -3.664156,-6.126634 -6.472656,-8.365234 -2.8492,-2.2386 -6.269012,-3.926807 -10.257813,-5.066407 C 77.175263,33.591084 72.719922,33 67.794922,33 Z m 17.15625,13.919922 h 12.638672 c 2.3607,0 4.455509,0.285569 6.287109,0.855469 1.8316,0.5698 3.378825,1.383206 4.640625,2.441406 1.4245,1.1804 2.483882,2.685978 3.175782,4.517578 0.7327,1.7909 1.097656,3.867716 1.097656,6.228516 0,1.9537 -0.283716,3.723147 -0.853516,5.310547 -0.5292,1.5874 -1.324612,2.952096 -2.382812,4.091796 -1.2618,1.4246 -2.910213,2.523575 -4.945313,3.296875 -1.9944,0.7326 -4.313284,1.097657 -6.958984,1.097657 H 55.15625 Z"
       style="fill:#222222;fill-opacity:1"
       sodipodi:nodetypes="cccccccccccscccsccscccscccscc" />
    <path
       id="path10"
       d="m 114.07227,33 v 88.89453 h 0.92382 c 0.74914,-1.24107 1.55981,-2.4208 2.43555,-3.53515 1.831,-2.279 3.92711,-4.23333 6.28711,-5.86133 2.32,-1.588 4.92445,-2.80811 7.81445,-3.66211 1.15233,-0.34092 2.35602,-0.59571 3.58594,-0.80078 h -3.83008 V 82.941406 h 36.51172 V 69.388672 H 131.28906 V 46.980469 H 173.7832 V 33 Z m 32.64648,75.03516 c 1.30274,0.21717 2.57651,0.49152 3.80273,0.86132 3.012,0.854 5.7201,2.09466 8.1211,3.72266 2.401,1.547 4.49711,3.41919 6.28711,5.61719 0.96362,1.15614 1.84888,2.37825 2.66601,3.6582 h 6.3711 v -13.85937 z m -5.7832,13.74218 c -0.67056,0 -1.30991,0.0446 -1.92969,0.11719 h 3.83984 c -0.61342,-0.0712 -1.24494,-0.11719 -1.91015,-0.11719 z"
       style="fill:#222222;fill-opacity:1" />
    <path
       id="path16"
       d="m 38,118.77344 v 88.89453 h 5.910156 c 1.493611,-2.42527 3.407357,-4.54298 5.751953,-6.34375 1.670342,-1.28287 3.524428,-2.38163 5.554688,-3.30469 V 170.85156 H 93.314453 V 156.93164 H 55.216797 v -24.17578 h 42.859375 v -13.98242 z"
       style="fill:#222222;fill-opacity:1" />
    <path
       id="path18"
       d="m 140.93555,117.55273 c -3.378,0 -6.51235,0.42821 -9.40235,1.28321 -2.89,0.854 -5.49445,2.07411 -7.81445,3.66211 -2.36,1.628 -4.45611,3.58232 -6.28711,5.86133 -1.791,2.27899 -3.31808,4.82185 -4.58008,7.63085 -1.303,2.971 -2.30018,6.20704 -2.99218,9.70704 -0.651,3.501 -0.97657,7.20628 -0.97657,11.11328 v 12.94336 c 0,3.664 0.28547,7.14345 0.85547,10.43945 0.611,3.297 1.486,6.3492 2.625,9.1582 1.262,3.052 2.82917,5.80019 4.70117,8.24219 1.82357,2.33764 3.88187,4.34171 6.16797,6.02344 1.54425,-1.59286 3.204,-3.02042 5.00391,-4.24805 2.402,-1.546 5.02795,-2.72702 7.87695,-3.54102 1.76436,-0.52198 3.61339,-0.86324 5.5293,-1.0664 -0.21532,0.008 -0.42643,0.0234 -0.64649,0.0234 -1.79,0 -3.39726,-0.26397 -4.82226,-0.79297 -1.384,-0.53 -2.62561,-1.28377 -3.72461,-2.25977 -1.18,-1.099 -2.21728,-2.52344 -3.11328,-4.27344 -0.855,-1.791 -1.50513,-3.76487 -1.95313,-5.92187 -0.407,-1.71 -0.69247,-3.56264 -0.85547,-5.55664 -0.163,-1.995 -0.24414,-4.06856 -0.24414,-6.22656 V 156.6875 c 0,-2.28 0.0811,-4.4572 0.24414,-6.5332 0.203,-2.076 0.50902,-3.98828 0.91602,-5.73828 0.529,-2.279 1.26126,-4.27343 2.19726,-5.98243 0.97701,-1.71 2.15897,-3.13539 3.54297,-4.27539 1.017,-0.773 2.15597,-1.36153 3.41797,-1.76953 1.302,-0.407 2.74699,-0.61133 4.33399,-0.61133 1.669,0 3.17457,0.22388 4.51757,0.67188 1.384,0.447 2.62757,1.07858 3.72657,1.89258 1.384,1.099 2.58356,2.52343 3.60156,4.27343 1.017,1.709 1.83041,3.66333 2.44141,5.86133 0.488,1.75 0.83506,3.66424 1.03906,5.74024 0.244,2.035 0.36523,4.1907 0.36523,6.4707 v 13.06641 c 0,2.198 -0.12123,4.31461 -0.36523,6.34961 -0.204,2.035 -0.53052,3.90718 -0.97852,5.61718 -0.57,2.198 -1.34136,4.17188 -2.31836,5.92188 -0.936,1.71 -2.09646,3.13344 -3.48046,4.27344 -1.09901,0.936 -2.36116,1.64771 -3.78516,2.13671 -0.74607,0.2555 -1.53336,0.44078 -2.35742,0.5625 0.6765,-0.0379 1.35618,-0.0684 2.05078,-0.0684 4.885,-1e-5 9.21986,0.69217 13.00586,2.07617 2.00759,0.72621 3.85316,1.61881 5.54687,2.66992 0.30996,-0.33992 0.62608,-0.67004 0.92383,-1.02735 2.036,-2.44199 3.74491,-5.12954 5.12891,-8.06054 1.302,-2.93 2.30018,-6.10444 2.99218,-9.52344 0.691,-3.46 1.03711,-7.10173 1.03711,-10.92773 V 156.8105 c 0,-4.03 -0.38615,-7.83597 -1.16015,-11.41797 -0.732,-3.582 -1.81038,-6.87863 -3.23438,-9.89063 -1.303,-2.645 -2.87112,-5.06762 -4.70312,-7.26562 -1.79,-2.198 -3.88611,-4.07019 -6.28711,-5.61719 -2.401,-1.628 -5.1091,-2.86866 -8.1211,-3.72266 -2.971,-0.896 -6.16693,-1.34375 -9.58593,-1.34375 z m 4.45703,90.97461 c -1.15946,0 -2.2549,0.11365 -3.29297,0.32618 1.31247,-0.0383 2.5949,-0.13189 3.83203,-0.30664 -0.18246,-0.004 -0.3526,-0.0195 -0.53906,-0.0195 z"
       style="fill:#222222;fill-opacity:1" />
    <path
       id="path24"
       d="m 72.068359,204.60742 c -4.4773,0 -8.629078,0.59049 -12.455078,1.77149 -3.8261,1.139 -7.142672,2.78831 -9.951172,4.94531 -2.8084,2.157 -5.00635,4.76145 -6.59375,7.81445 -1.5873,3.053 -2.382812,6.45227 -2.382812,10.19727 0,3.256 0.591084,6.26715 1.771484,9.03515 1.2211,2.768 3.012347,5.29132 5.373047,7.57032 2.3608,2.28 5.391803,4.37606 9.095703,6.28906 3.7446,1.913 8.08086,3.53981 13.00586,4.88281 3.1748,0.855 5.819047,1.79255 7.935547,2.81055 2.1572,0.977 3.908753,2.05337 5.251953,3.23437 1.3025,1.221 2.216993,2.52421 2.746093,3.90821 0.5699,1.384 0.855469,2.86903 0.855469,4.45703 0,1.587 -0.325262,3.05348 -0.976562,4.39648 -0.6512,1.302 -1.587594,2.42142 -2.808594,3.35742 -1.2211,0.936 -2.726678,1.66727 -4.517578,2.19727 -0.909058,0.27476 -1.893502,0.4755 -2.945313,0.60742 1.431948,0.22174 2.82524,0.52192 4.166016,0.92578 3.0119,0.855 5.71774,2.09466 8.11914,3.72266 1.843824,1.1878 3.504355,2.57112 4.988282,4.14258 0.706145,-0.43977 1.385082,-0.9049 2.033203,-1.40039 2.7677,-2.076 4.925456,-4.61886 6.472653,-7.63086 1.587,-3.053 2.38086,-6.53441 2.38086,-10.44141 0,-4.518 -1.03728,-8.5068 -3.11328,-11.9668 -2.075899,-3.459 -4.864733,-6.4907 -8.365233,-9.0957 -2.32,-1.587 -4.86316,-2.99189 -7.630859,-4.21289 -2.767801,-1.221 -5.677769,-2.25828 -8.730469,-3.11328 -2.8492,-0.774 -5.41396,-1.60891 -7.69336,-2.50391 -2.2386,-0.896 -4.150881,-1.89318 -5.738281,-2.99219 -1.5874,-1.05799 -2.809362,-2.25856 -3.664062,-3.60156 -0.8141,-1.343 -1.220703,-2.84858 -1.220704,-4.51758 0,-1.588 0.305516,-3.05348 0.916016,-4.39648 0.6512,-1.384 1.587494,-2.58456 2.808594,-3.60156 1.221,-0.977 2.706831,-1.73077 4.457031,-2.25977 1.7909,-0.57 3.824216,-0.85547 6.103516,-0.85547 2.4829,0 4.641056,0.34707 6.472656,1.03907 1.8723,0.651 3.439372,1.56609 4.701172,2.74609 1.221,1.222 2.137447,2.66694 2.748047,4.33594 0.6512,1.669 1.016256,3.50014 1.097656,5.49414 h 16.73047 c 0,-3.989 -0.77527,-7.65224 -2.32227,-10.99024 -1.546197,-3.337 -3.7029,-6.22597 -6.4707,-8.66797 -2.7678,-2.402 -6.084472,-4.27418 -9.951172,-5.61718 -3.8261,-1.343 -8.059119,-2.01563 -12.699219,-2.01563 z M 38,267.12695 c 0,4.599 0.8748,8.60835 2.625,12.02735 1.7909,3.419 4.212925,6.39106 7.265625,8.91406 0.526293,0.41982 1.073177,0.81803 1.628906,1.20508 1.040979,-0.96805 2.145208,-1.85638 3.316407,-2.66406 2.3201,-1.58701 4.924553,-2.80907 7.814453,-3.66407 2.003727,-0.59282 4.132602,-0.96484 6.371093,-1.14648 -0.590082,-0.10972 -1.168052,-0.23642 -1.730468,-0.38477 -2.1166,-0.57 -3.927594,-1.4665 -5.433594,-2.6875 -1.5467,-1.221 -2.746763,-2.78817 -3.601563,-4.70117 -0.8547,-1.913 -1.322896,-4.21244 -1.404297,-6.89844 z"
       style="fill:#222222;fill-opacity:1" />
    <path
       d="m 177.385,266.883 h -17.156 c -0.162,2.686 -0.61,4.986 -1.343,6.899 -0.733,1.913 -1.73,3.48 -2.991,4.701 -1.262,1.221 -2.789,2.117 -4.58,2.686 -1.79,0.57 -3.805,0.855 -6.044,0.855 -1.669,0 -3.195,-0.183 -4.579,-0.549 -1.343,-0.407 -2.564,-1.018 -3.663,-1.832 -1.018,-0.733 -1.933,-1.648 -2.747,-2.747 -0.774,-1.099 -1.445,-2.361 -2.015,-3.786 -0.814,-2.076 -1.425,-4.497 -1.832,-7.265 -0.366,-2.809 -0.549,-5.983 -0.549,-9.524 v -12.089 c 0,-2.605 0.122,-5.027 0.366,-7.265 0.244,-2.28 0.631,-4.356 1.16,-6.228 0.692,-2.401 1.608,-4.498 2.747,-6.288 1.181,-1.832 2.605,-3.236 4.274,-4.213 0.977,-0.57 2.035,-0.997 3.175,-1.282 1.18,-0.285 2.442,-0.428 3.785,-0.428 2.524,0 4.681,0.346 6.472,1.038 1.832,0.651 3.358,1.628 4.579,2.931 1.18,1.343 2.076,3.012 2.686,5.006 0.652,1.995 1.059,4.315 1.221,6.96 h 17.095 c -0.407,-4.64 -1.383,-8.812 -2.93,-12.516 -1.547,-3.704 -3.663,-6.838 -6.35,-9.402 -2.686,-2.564 -5.942,-4.538 -9.768,-5.922 -3.786,-1.384 -8.12,-2.076 -13.005,-2.076 -3.297,0 -6.39,0.427 -9.28,1.282 -2.849,0.814 -5.474,1.995 -7.876,3.541 -2.686,1.832 -5.088,4.071 -7.204,6.716 -2.117,2.646 -3.826,5.658 -5.129,9.036 -1.139,2.768 -1.994,5.78 -2.564,9.036 -0.57,3.216 -0.855,6.614 -0.855,10.196 v 11.967 c 0,3.826 0.306,7.448 0.916,10.867 0.651,3.419 1.567,6.553 2.748,9.402 1.221,2.849 2.706,5.454 4.457,7.815 1.79,2.361 3.826,4.376 6.105,6.045 2.483,1.79 5.271,3.174 8.364,4.151 3.134,0.936 6.533,1.404 10.196,1.404 4.64,0 8.873,-0.671 12.699,-2.014 3.826,-1.384 7.123,-3.338 9.891,-5.862 2.768,-2.523 4.966,-5.576 6.594,-9.158 1.669,-3.581 2.645,-7.611 2.93,-12.088 z"
       fill="#222222"
       id="path26"
       style="fill:#222222;fill-opacity:1" />
    <path
       d="m 103.144,343.865 v -12.944 c 0,-4.029 -0.386,-7.835 -1.16,-11.417 -0.732,-3.582 -1.811,-6.878 -3.2357,-9.89 -1.3024,-2.646 -2.8695,-5.068 -4.7011,-7.266 -1.7909,-2.198 -3.8871,-4.07 -6.2885,-5.617 -2.4014,-1.628 -5.1082,-2.869 -8.1201,-3.724 -2.9713,-0.895 -6.1665,-1.343 -9.5855,-1.343 -3.3783,0 -6.5123,0.427 -9.4022,1.282 -2.8899,0.855 -5.4948,2.076 -7.8149,3.663 -2.3607,1.628 -4.4569,3.582 -6.2885,5.861 -1.7909,2.28 -3.3172,4.824 -4.579,7.632 -1.3025,2.971 -2.2997,6.207 -2.9916,9.708 C 38.3256,323.31 38,327.014 38,330.921 v 12.944 c 0,3.663 0.2849,7.143 0.8548,10.44 0.6105,3.297 1.4856,6.349 2.6253,9.158 1.2617,3.053 2.8288,5.8 4.7011,8.242 1.8723,2.402 3.9888,4.457 6.3496,6.166 2.4014,1.629 5.0674,2.89 7.998,3.786 2.9306,0.895 6.1257,1.343 9.5854,1.343 3.2562,0 6.2885,-0.407 9.097,-1.221 2.8492,-0.773 5.4541,-1.872 7.8149,-3.297 2.6049,-1.628 4.9249,-3.663 6.9601,-6.105 2.0351,-2.442 3.7446,-5.129 5.1285,-8.059 1.3023,-2.931 2.2993,-6.106 2.9913,-9.525 0.692,-3.459 1.038,-7.102 1.038,-10.928 z M 85.7439,330.799 v 13.066 c 0,2.198 -0.1221,4.314 -0.3663,6.349 -0.2035,2.035 -0.5291,3.908 -0.9769,5.617 -0.5698,2.198 -1.3431,4.172 -2.32,5.922 -0.9361,1.71 -2.0962,3.134 -3.48,4.274 -1.099,0.936 -2.3608,1.649 -3.7854,2.137 -1.4246,0.488 -2.9916,0.733 -4.7011,0.733 -1.7909,0 -3.3987,-0.265 -4.8232,-0.794 -1.3839,-0.529 -2.6253,-1.282 -3.7243,-2.259 -1.1804,-1.099 -2.2183,-2.524 -3.1137,-4.274 -0.8548,-1.791 -1.506,-3.765 -1.9538,-5.922 -0.407,-1.71 -0.6919,-3.561 -0.8547,-5.556 -0.1628,-1.994 -0.2442,-4.07 -0.2442,-6.227 v -13.066 c 0,-2.279 0.0814,-4.457 0.2442,-6.533 0.2035,-2.075 0.5088,-3.988 0.9158,-5.739 0.5291,-2.279 1.2618,-4.273 2.1979,-5.983 0.9769,-1.709 2.1573,-3.134 3.5411,-4.274 1.0176,-0.773 2.1573,-1.363 3.419,-1.77 1.3025,-0.407 2.7475,-0.611 4.3348,-0.611 1.6688,0 3.1748,0.224 4.518,0.672 1.3839,0.448 2.6253,1.078 3.7243,1.893 1.3839,1.098 2.5846,2.523 3.6021,4.273 1.0176,1.71 1.8317,3.664 2.4422,5.861 0.4884,1.751 0.8344,3.664 1.0379,5.739 0.2442,2.036 0.3663,4.193 0.3663,6.472 z"
       fill="#222222"
       id="path30"
       style="fill:#222222;fill-opacity:1" />
  </g>
  <g
     id="g861"
     transform="translate(-0.5,-0.5)">
    <path
       fill-rule="evenodd"
       clip-rule="evenodd"
       d="m 0.5,0.5 h 215 v 415 H 0.5 Z m 15,15 v 385 h 185 v -385 z"
       fill="#222222"
       id="path845" />
    <path
       id="path847"
       d="m 38,33 v 75.77344 H 55.15625 V 88.681641 H 68.160156 L 78.279297,108.77344 H 96.845703 L 84.15625,84.40625 C 86.59845,83.30735 88.7963,82.006 90.75,80.5 c 1.9944,-1.506 3.704306,-3.2773 5.128906,-5.3125 1.3839,-1.9944 2.441228,-4.253844 3.173828,-6.777344 0.7734,-2.5643 1.162106,-5.432622 1.162106,-8.607422 0,-4.3958 -0.773609,-8.262009 -2.320309,-11.599609 -1.506,-3.3375 -3.664156,-6.126634 -6.472656,-8.365234 -2.8492,-2.2386 -6.269012,-3.926807 -10.257813,-5.066407 C 77.175263,33.591084 72.719922,33 67.794922,33 Z m 17.15625,13.919922 h 12.638672 c 2.3607,0 4.455509,0.285569 6.287109,0.855469 1.8316,0.5698 3.378825,1.383206 4.640625,2.441406 1.4245,1.1804 2.483882,2.685978 3.175782,4.517578 0.7327,1.7909 1.097656,3.867716 1.097656,6.228516 0,1.9537 -0.283716,3.723147 -0.853516,5.310547 -0.5292,1.5874 -1.324612,2.952096 -2.382812,4.091796 -1.2618,1.4246 -2.910213,2.523575 -4.945313,3.296875 -1.9944,0.7326 -4.313284,1.097657 -6.958984,1.097657 H 55.15625 Z"
       style="fill:#222222;fill-opacity:1"
       sodipodi:nodetypes="cccccccccccscccsccscccscccscc" />
    <path
       id="path849"
       d="m 114.07227,33 v 88.89453 h 0.92382 c 0.74914,-1.24107 1.55981,-2.4208 2.43555,-3.53515 1.831,-2.279 3.92711,-4.23333 6.28711,-5.86133 2.32,-1.588 4.92445,-2.80811 7.81445,-3.66211 1.15233,-0.34092 2.35602,-0.59571 3.58594,-0.80078 h -3.83008 V 82.941406 h 36.51172 V 69.388672 H 131.28906 V 46.980469 H 173.7832 V 33 Z m 32.64648,75.03516 c 1.30274,0.21717 2.57651,0.49152 3.80273,0.86132 3.012,0.854 5.7201,2.09466 8.1211,3.72266 2.401,1.547 4.49711,3.41919 6.28711,5.61719 0.96362,1.15614 1.84888,2.37825 2.66601,3.6582 h 6.3711 v -13.85937 z m -5.7832,13.74218 c -0.67056,0 -1.30991,0.0446 -1.92969,0.11719 h 3.83984 c -0.61342,-0.0712 -1.24494,-0.11719 -1.91015,-0.11719 z"
       style="fill:#222222;fill-opacity:1" />
    <path
       id="path851"
       d="m 38,118.77344 v 88.89453 h 5.910156 c 1.493611,-2.42527 3.407357,-4.54298 5.751953,-6.34375 1.670342,-1.28287 3.524428,-2.38163 5.554688,-3.30469 V 170.85156 H 93.314453 V 156.93164 H 55.216797 v -24.17578 h 42.859375 v -13.98242 z"
       style="fill:#222222;fill-opacity:1" />
    <path
       id="path853"
       d="m 140.93555,117.55273 c -3.378,0 -6.51235,0.42821 -9.40235,1.28321 -2.89,0.854 -5.49445,2.07411 -7.81445,3.66211 -2.36,1.628 -4.45611,3.58232 -6.28711,5.86133 -1.791,2.27899 -3.31808,4.82185 -4.58008,7.63085 -1.303,2.971 -2.30018,6.20704 -2.99218,9.70704 -0.651,3.501 -0.97657,7.20628 -0.97657,11.11328 v 12.94336 c 0,3.664 0.28547,7.14345 0.85547,10.43945 0.611,3.297 1.486,6.3492 2.625,9.1582 1.262,3.052 2.82917,5.80019 4.70117,8.24219 1.82357,2.33764 3.88187,4.34171 6.16797,6.02344 1.54425,-1.59286 3.204,-3.02042 5.00391,-4.24805 2.402,-1.546 5.02795,-2.72702 7.87695,-3.54102 1.76436,-0.52198 3.61339,-0.86324 5.5293,-1.0664 -0.21532,0.008 -0.42643,0.0234 -0.64649,0.0234 -1.79,0 -3.39726,-0.26397 -4.82226,-0.79297 -1.384,-0.53 -2.62561,-1.28377 -3.72461,-2.25977 -1.18,-1.099 -2.21728,-2.52344 -3.11328,-4.27344 -0.855,-1.791 -1.50513,-3.76487 -1.95313,-5.92187 -0.407,-1.71 -0.69247,-3.56264 -0.85547,-5.55664 -0.163,-1.995 -0.24414,-4.06856 -0.24414,-6.22656 V 156.6875 c 0,-2.28 0.0811,-4.4572 0.24414,-6.5332 0.203,-2.076 0.50902,-3.98828 0.91602,-5.73828 0.529,-2.279 1.26126,-4.27343 2.19726,-5.98243 0.97701,-1.71 2.15897,-3.13539 3.54297,-4.27539 1.017,-0.773 2.15597,-1.36153 3.41797,-1.76953 1.302,-0.407 2.74699,-0.61133 4.33399,-0.61133 1.669,0 3.17457,0.22388 4.51757,0.67188 1.384,0.447 2.62757,1.07858 3.72657,1.89258 1.384,1.099 2.58356,2.52343 3.60156,4.27343 1.017,1.709 1.83041,3.66333 2.44141,5.86133 0.488,1.75 0.83506,3.66424 1.03906,5.74024 0.244,2.035 0.36523,4.1907 0.36523,6.4707 v 13.06641 c 0,2.198 -0.12123,4.31461 -0.36523,6.34961 -0.204,2.035 -0.53052,3.90718 -0.97852,5.61718 -0.57,2.198 -1.34136,4.17188 -2.31836,5.92188 -0.936,1.71 -2.09646,3.13344 -3.48046,4.27344 -1.09901,0.936 -2.36116,1.64771 -3.78516,2.13671 -0.74607,0.2555 -1.53336,0.44078 -2.35742,0.5625 0.6765,-0.0379 1.35618,-0.0684 2.05078,-0.0684 4.885,-1e-5 9.21986,0.69217 13.00586,2.07617 2.00759,0.72621 3.85316,1.61881 5.54687,2.66992 0.30996,-0.33992 0.62608,-0.67004 0.92383,-1.02735 2.036,-2.44199 3.74491,-5.12954 5.12891,-8.06054 1.302,-2.93 2.30018,-6.10444 2.99218,-9.52344 0.691,-3.46 1.03711,-7.10173 1.03711,-10.92773 V 156.8105 c 0,-4.03 -0.38615,-7.83597 -1.16015,-11.41797 -0.732,-3.582 -1.81038,-6.87863 -3.23438,-9.89063 -1.303,-2.645 -2.87112,-5.06762 -4.70312,-7.26562 -1.79,-2.198 -3.88611,-4.07019 -6.28711,-5.61719 -2.401,-1.628 -5.1091,-2.86866 -8.1211,-3.72266 -2.971,-0.896 -6.16693,-1.34375 -9.58593,-1.34375 z m 4.45703,90.97461 c -1.15946,0 -2.2549,0.11365 -3.29297,0.32618 1.31247,-0.0383 2.5949,-0.13189 3.83203,-0.30664 -0.18246,-0.004 -0.3526,-0.0195 -0.53906,-0.0195 z"
       style="fill:#222222;fill-opacity:1" />
    <path
       id="path855"
       d="m 72.068359,204.60742 c -4.4773,0 -8.629078,0.59049 -12.455078,1.77149 -3.8261,1.139 -7.142672,2.78831 -9.951172,4.94531 -2.8084,2.157 -5.00635,4.76145 -6.59375,7.81445 -1.5873,3.053 -2.382812,6.45227 -2.382812,10.19727 0,3.256 0.591084,6.26715 1.771484,9.03515 1.2211,2.768 3.012347,5.29132 5.373047,7.57032 2.3608,2.28 5.391803,4.37606 9.095703,6.28906 3.7446,1.913 8.08086,3.53981 13.00586,4.88281 3.1748,0.855 5.819047,1.79255 7.935547,2.81055 2.1572,0.977 3.908753,2.05337 5.251953,3.23437 1.3025,1.221 2.216993,2.52421 2.746093,3.90821 0.5699,1.384 0.855469,2.86903 0.855469,4.45703 0,1.587 -0.325262,3.05348 -0.976562,4.39648 -0.6512,1.302 -1.587594,2.42142 -2.808594,3.35742 -1.2211,0.936 -2.726678,1.66727 -4.517578,2.19727 -0.909058,0.27476 -1.893502,0.4755 -2.945313,0.60742 1.431948,0.22174 2.82524,0.52192 4.166016,0.92578 3.0119,0.855 5.71774,2.09466 8.11914,3.72266 1.843824,1.1878 3.504355,2.57112 4.988282,4.14258 0.706145,-0.43977 1.385082,-0.9049 2.033203,-1.40039 2.7677,-2.076 4.925456,-4.61886 6.472653,-7.63086 1.587,-3.053 2.38086,-6.53441 2.38086,-10.44141 0,-4.518 -1.03728,-8.5068 -3.11328,-11.9668 -2.075899,-3.459 -4.864733,-6.4907 -8.365233,-9.0957 -2.32,-1.587 -4.86316,-2.99189 -7.630859,-4.21289 -2.767801,-1.221 -5.677769,-2.25828 -8.730469,-3.11328 -2.8492,-0.774 -5.41396,-1.60891 -7.69336,-2.50391 -2.2386,-0.896 -4.150881,-1.89318 -5.738281,-2.99219 -1.5874,-1.05799 -2.809362,-2.25856 -3.664062,-3.60156 -0.8141,-1.343 -1.220703,-2.84858 -1.220704,-4.51758 0,-1.588 0.305516,-3.05348 0.916016,-4.39648 0.6512,-1.384 1.587494,-2.58456 2.808594,-3.60156 1.221,-0.977 2.706831,-1.73077 4.457031,-2.25977 1.7909,-0.57 3.824216,-0.85547 6.103516,-0.85547 2.4829,0 4.641056,0.34707 6.472656,1.03907 1.8723,0.651 3.439372,1.56609 4.701172,2.74609 1.221,1.222 2.137447,2.66694 2.748047,4.33594 0.6512,1.669 1.016256,3.50014 1.097656,5.49414 h 16.73047 c 0,-3.989 -0.77527,-7.65224 -2.32227,-10.99024 -1.546197,-3.337 -3.7029,-6.22597 -6.4707,-8.66797 -2.7678,-2.402 -6.084472,-4.27418 -9.951172,-5.61718 -3.8261,-1.343 -8.059119,-2.01563 -12.699219,-2.01563 z M 38,267.12695 c 0,4.599 0.8748,8.60835 2.625,12.02735 1.7909,3.419 4.212925,6.39106 7.265625,8.91406 0.526293,0.41982 1.073177,0.81803 1.628906,1.20508 1.040979,-0.96805 2.145208,-1.85638 3.316407,-2.66406 2.3201,-1.58701 4.924553,-2.80907 7.814453,-3.66407 2.003727,-0.59282 4.132602,-0.96484 6.371093,-1.14648 -0.590082,-0.10972 -1.168052,-0.23642 -1.730468,-0.38477 -2.1166,-0.57 -3.927594,-1.4665 -5.433594,-2.6875 -1.5467,-1.221 -2.746763,-2.78817 -3.601563,-4.70117 -0.8547,-1.913 -1.322896,-4.21244 -1.404297,-6.89844 z"
       style="fill:#222222;fill-opacity:1" />
    <path
       d="m 177.385,266.883 h -17.156 c -0.162,2.686 -0.61,4.986 -1.343,6.899 -0.733,1.913 -1.73,3.48 -2.991,4.701 -1.262,1.221 -2.789,2.117 -4.58,2.686 -1.79,0.57 -3.805,0.855 -6.044,0.855 -1.669,0 -3.195,-0.183 -4.579,-0.549 -1.343,-0.407 -2.564,-1.018 -3.663,-1.832 -1.018,-0.733 -1.933,-1.648 -2.747,-2.747 -0.774,-1.099 -1.445,-2.361 -2.015,-3.786 -0.814,-2.076 -1.425,-4.497 -1.832,-7.265 -0.366,-2.809 -0.549,-5.983 -0.549,-9.524 v -12.089 c 0,-2.605 0.122,-5.027 0.366,-7.265 0.244,-2.28 0.631,-4.356 1.16,-6.228 0.692,-2.401 1.608,-4.498 2.747,-6.288 1.181,-1.832 2.605,-3.236 4.274,-4.213 0.977,-0.57 2.035,-0.997 3.175,-1.282 1.18,-0.285 2.442,-0.428 3.785,-0.428 2.524,0 4.681,0.346 6.472,1.038 1.832,0.651 3.358,1.628 4.579,2.931 1.18,1.343 2.076,3.012 2.686,5.006 0.652,1.995 1.059,4.315 1.221,6.96 h 17.095 c -0.407,-4.64 -1.383,-8.812 -2.93,-12.516 -1.547,-3.704 -3.663,-6.838 -6.35,-9.402 -2.686,-2.564 -5.942,-4.538 -9.768,-5.922 -3.786,-1.384 -8.12,-2.076 -13.005,-2.076 -3.297,0 -6.39,0.427 -9.28,1.282 -2.849,0.814 -5.474,1.995 -7.876,3.541 -2.686,1.832 -5.088,4.071 -7.204,6.716 -2.117,2.646 -3.826,5.658 -5.129,9.036 -1.139,2.768 -1.994,5.78 -2.564,9.036 -0.57,3.216 -0.855,6.614 -0.855,10.196 v 11.967 c 0,3.826 0.306,7.448 0.916,10.867 0.651,3.419 1.567,6.553 2.748,9.402 1.221,2.849 2.706,5.454 4.457,7.815 1.79,2.361 3.826,4.376 6.105,6.045 2.483,1.79 5.271,3.174 8.364,4.151 3.134,0.936 6.533,1.404 10.196,1.404 4.64,0 8.873,-0.671 12.699,-2.014 3.826,-1.384 7.123,-3.338 9.891,-5.862 2.768,-2.523 4.966,-5.576 6.594,-9.158 1.669,-3.581 2.645,-7.611 2.93,-12.088 z"
       fill="#222222"
       id="path857"
       style="fill:#222222;fill-opacity:1" />
    <path
       d="m 103.144,343.865 v -12.944 c 0,-4.029 -0.386,-7.835 -1.16,-11.417 -0.732,-3.582 -1.811,-6.878 -3.2357,-9.89 -1.3024,-2.646 -2.8695,-5.068 -4.7011,-7.266 -1.7909,-2.198 -3.8871,-4.07 -6.2885,-5.617 -2.4014,-1.628 -5.1082,-2.869 -8.1201,-3.724 -2.9713,-0.895 -6.1665,-1.343 -9.5855,-1.343 -3.3783,0 -6.5123,0.427 -9.4022,1.282 -2.8899,0.855 -5.4948,2.076 -7.8149,3.663 -2.3607,1.628 -4.4569,3.582 -6.2885,5.861 -1.7909,2.28 -3.3172,4.824 -4.579,7.632 -1.3025,2.971 -2.2997,6.207 -2.9916,9.708 C 38.3256,323.31 38,327.014 38,330.921 v 12.944 c 0,3.663 0.2849,7.143 0.8548,10.44 0.6105,3.297 1.4856,6.349 2.6253,9.158 1.2617,3.053 2.8288,5.8 4.7011,8.242 1.8723,2.402 3.9888,4.457 6.3496,6.166 2.4014,1.629 5.0674,2.89 7.998,3.786 2.9306,0.895 6.1257,1.343 9.5854,1.343 3.2562,0 6.2885,-0.407 9.097,-1.221 2.8492,-0.773 5.4541,-1.872 7.8149,-3.297 2.6049,-1.628 4.9249,-3.663 6.9601,-6.105 2.0351,-2.442 3.7446,-5.129 5.1285,-8.059 1.3023,-2.931 2.2993,-6.106 2.9913,-9.525 0.692,-3.459 1.038,-7.102 1.038,-10.928 z M 85.7439,330.799 v 13.066 c 0,2.198 -0.1221,4.314 -0.3663,6.349 -0.2035,2.035 -0.5291,3.908 -0.9769,5.617 -0.5698,2.198 -1.3431,4.172 -2.32,5.922 -0.9361,1.71 -2.0962,3.134 -3.48,4.274 -1.099,0.936 -2.3608,1.649 -3.7854,2.137 -1.4246,0.488 -2.9916,0.733 -4.7011,0.733 -1.7909,0 -3.3987,-0.265 -4.8232,-0.794 -1.3839,-0.529 -2.6253,-1.282 -3.7243,-2.259 -1.1804,-1.099 -2.2183,-2.524 -3.1137,-4.274 -0.8548,-1.791 -1.506,-3.765 -1.9538,-5.922 -0.407,-1.71 -0.6919,-3.561 -0.8547,-5.556 -0.1628,-1.994 -0.2442,-4.07 -0.2442,-6.227 v -13.066 c 0,-2.279 0.0814,-4.457 0.2442,-6.533 0.2035,-2.075 0.5088,-3.988 0.9158,-5.739 0.5291,-2.279 1.2618,-4.273 2.1979,-5.983 0.9769,-1.709 2.1573,-3.134 3.5411,-4.274 1.0176,-0.773 2.1573,-1.363 3.419,-1.77 1.3025,-0.407 2.7475,-0.611 4.3348,-0.611 1.6688,0 3.1748,0.224 4.518,0.672 1.3839,0.448 2.6253,1.078 3.7243,1.893 1.3839,1.098 2.5846,2.523 3.6021,4.273 1.0176,1.71 1.8317,3.664 2.4422,5.861 0.4884,1.751 0.8344,3.664 1.0379,5.739 0.2442,2.036 0.3663,4.193 0.3663,6.472 z"
       fill="#222222"
       id="path859"
       style="fill:#222222;fill-opacity:1" />
  </g>
</svg>
