<?xml version="1.0" encoding="UTF-8" standalone="no"?>
<svg
   width="216"
   height="416"
   viewBox="0 0 216 416"
   fill="none"
   version="1.1"
   id="svg32"
   sodipodi:docname="logo.svg"
   inkscape:version="1.1.1 (1:1.1+202109281949+c3084ef5ed)"
   xmlns:inkscape="http://www.inkscape.org/namespaces/inkscape"
   xmlns:sodipodi="http://sodipodi.sourceforge.net/DTD/sodipodi-0.dtd"
   xmlns="http://www.w3.org/2000/svg"
   xmlns:svg="http://www.w3.org/2000/svg">
  <defs
     id="defs36" />
  <sodipodi:namedview
     id="namedview34"
     pagecolor="#505050"
     bordercolor="#eeeeee"
     borderopacity="1"
     inkscape:pageshadow="0"
     inkscape:pageopacity="0"
     inkscape:pagecheckerboard="0"
     showgrid="false"
     inkscape:zoom="1.2221389"
     inkscape:cx="145.64629"
     inkscape:cy="139.50951"
     inkscape:window-width="2560"
     inkscape:window-height="1016"
     inkscape:window-x="1920"
     inkscape:window-y="27"
     inkscape:window-maximized="1"
     inkscape:current-layer="svg32" />
  <path
     fill-rule="evenodd"
     clip-rule="evenodd"
     d="M0.5 0.5H215.5V415.5H0.5V0.5ZM15.5 15.5V400.5H200.5V15.5H15.5Z"
     fill="#222222"
     id="path2" />
  <path
     id="path8"
     d="m 38,33 v 75.77344 H 55.15625 V 88.681641 H 68.160156 L 78.279297,108.77344 H 96.845703 L 84.15625,84.40625 C 86.59845,83.30735 88.7963,82.006 90.75,80.5 c 1.9944,-1.506 3.704306,-3.2773 5.128906,-5.3125 1.3839,-1.9944 2.441228,-4.253844 3.173828,-6.777344 0.7734,-2.5643 1.162106,-5.432622 1.162106,-8.607422 0,-4.3958 -0.773609,-8.262009 -2.320309,-11.599609 -1.506,-3.3375 -3.664156,-6.126634 -6.472656,-8.365234 -2.8492,-2.2386 -6.269012,-3.926807 -10.257813,-5.066407 C 77.175263,33.591084 72.719922,33 67.794922,33 Z m 17.15625,13.919922 h 12.638672 c 2.3607,0 4.455509,0.285569 6.287109,0.855469 1.8316,0.5698 3.378825,1.383206 4.640625,2.441406 1.4245,1.1804 2.483882,2.685978 3.175782,4.517578 0.7327,1.7909 1.097656,3.867716 1.097656,6.228516 0,1.9537 -0.283716,3.723147 -0.853516,5.310547 -0.5292,1.5874 -1.324612,2.952096 -2.382812,4.091796 -1.2618,1.4246 -2.910213,2.523575 -4.945313,3.296875 -1.9944,0.7326 -4.313284,1.097657 -6.958984,1.097657 H 55.15625 Z"
     style="fill:#222222;fill-opacity:1"
     sodipodi:nodetypes="cccccccccccscccsccscccscccscc" />
  <path
     id="path10"
     d="M 114.07227 33 L 114.07227 121.89453 L 114.99609 121.89453 C 115.74523 120.65346 116.5559 119.47373 117.43164 118.35938 C 119.26264 116.08038 121.35875 114.12605 123.71875 112.49805 C 126.03875 110.91005 128.6432 109.68994 131.5332 108.83594 C 132.68553 108.49502 133.88922 108.24023 135.11914 108.03516 L 131.28906 108.03516 L 131.28906 82.941406 L 167.80078 82.941406 L 167.80078 69.388672 L 131.28906 69.388672 L 131.28906 46.980469 L 173.7832 46.980469 L 173.7832 33 L 114.07227 33 z M 146.71875 108.03516 C 148.02149 108.25233 149.29526 108.52668 150.52148 108.89648 C 153.53348 109.75048 156.24158 110.99114 158.64258 112.61914 C 161.04358 114.16614 163.13969 116.03833 164.92969 118.23633 C 165.89331 119.39247 166.77857 120.61458 167.5957 121.89453 L 173.9668 121.89453 L 173.9668 108.03516 L 146.71875 108.03516 z M 140.93555 121.77734 C 140.26499 121.77734 139.62564 121.82197 139.00586 121.89453 L 142.8457 121.89453 C 142.23228 121.82336 141.60076 121.77734 140.93555 121.77734 z "
     style="fill:#222222;fill-opacity:1" />
  <path
     id="path16"
     d="M 38 118.77344 L 38 207.66797 L 43.910156 207.66797 C 45.403767 205.2427 47.317513 203.12499 49.662109 201.32422 C 51.332451 200.04135 53.186537 198.94259 55.216797 198.01953 L 55.216797 170.85156 L 93.314453 170.85156 L 93.314453 156.93164 L 55.216797 156.93164 L 55.216797 132.75586 L 98.076172 132.75586 L 98.076172 118.77344 L 38 118.77344 z "
     style="fill:#222222;fill-opacity:1" />
  <path
     id="path18"
     d="M 140.93555 117.55273 C 137.55755 117.55273 134.4232 117.98094 131.5332 118.83594 C 128.6432 119.68994 126.03875 120.91005 123.71875 122.49805 C 121.35875 124.12605 119.26264 126.08037 117.43164 128.35938 C 115.64064 130.63837 114.11356 133.18123 112.85156 135.99023 C 111.54856 138.96123 110.55138 142.19727 109.85938 145.69727 C 109.20838 149.19827 108.88281 152.90355 108.88281 156.81055 L 108.88281 169.75391 C 108.88281 173.41791 109.16828 176.89736 109.73828 180.19336 C 110.34928 183.49036 111.22428 186.54256 112.36328 189.35156 C 113.62528 192.40356 115.19245 195.15175 117.06445 197.59375 C 118.88802 199.93139 120.94632 201.93546 123.23242 203.61719 C 124.77667 202.02433 126.43642 200.59677 128.23633 199.36914 C 130.63833 197.82314 133.26428 196.64212 136.11328 195.82812 C 137.87764 195.30614 139.72667 194.96488 141.64258 194.76172 C 141.42726 194.7698 141.21615 194.78516 140.99609 194.78516 C 139.20609 194.78516 137.59883 194.52119 136.17383 193.99219 C 134.78983 193.46219 133.54822 192.70842 132.44922 191.73242 C 131.26922 190.63342 130.23194 189.20898 129.33594 187.45898 C 128.48094 185.66798 127.83081 183.69411 127.38281 181.53711 C 126.97581 179.82711 126.69034 177.97447 126.52734 175.98047 C 126.36434 173.98547 126.2832 171.91191 126.2832 169.75391 L 126.2832 156.6875 C 126.2832 154.4075 126.36434 152.2303 126.52734 150.1543 C 126.73034 148.0783 127.03636 146.16602 127.44336 144.41602 C 127.97236 142.13702 128.70462 140.14259 129.64062 138.43359 C 130.61763 136.72359 131.79959 135.2982 133.18359 134.1582 C 134.20059 133.3852 135.33956 132.79667 136.60156 132.38867 C 137.90356 131.98167 139.34855 131.77734 140.93555 131.77734 C 142.60455 131.77734 144.11012 132.00122 145.45312 132.44922 C 146.83712 132.89622 148.08069 133.5278 149.17969 134.3418 C 150.56369 135.4408 151.76325 136.86523 152.78125 138.61523 C 153.79825 140.32423 154.61166 142.27856 155.22266 144.47656 C 155.71066 146.22656 156.05772 148.1408 156.26172 150.2168 C 156.50572 152.2518 156.62695 154.4075 156.62695 156.6875 L 156.62695 169.75391 C 156.62695 171.95191 156.50572 174.06852 156.26172 176.10352 C 156.05772 178.13852 155.7312 180.0107 155.2832 181.7207 C 154.7132 183.9187 153.94184 185.89258 152.96484 187.64258 C 152.02884 189.35258 150.86838 190.77602 149.48438 191.91602 C 148.38537 192.85202 147.12322 193.56373 145.69922 194.05273 C 144.95315 194.30823 144.16586 194.49351 143.3418 194.61523 C 144.0183 194.57732 144.69798 194.54688 145.39258 194.54688 C 150.27758 194.54687 154.61244 195.23905 158.39844 196.62305 C 160.40603 197.34926 162.2516 198.24186 163.94531 199.29297 C 164.25527 198.95305 164.57139 198.62293 164.86914 198.26562 C 166.90514 195.82363 168.61405 193.13608 169.99805 190.20508 C 171.30005 187.27508 172.29823 184.10064 172.99023 180.68164 C 173.68123 177.22164 174.02734 173.57991 174.02734 169.75391 L 174.02734 156.81055 C 174.02734 152.78055 173.64119 148.97458 172.86719 145.39258 C 172.13519 141.81058 171.05681 138.51395 169.63281 135.50195 C 168.32981 132.85695 166.76169 130.43433 164.92969 128.23633 C 163.13969 126.03833 161.04358 124.16614 158.64258 122.61914 C 156.24158 120.99114 153.53348 119.75048 150.52148 118.89648 C 147.55048 118.00048 144.35455 117.55273 140.93555 117.55273 z M 145.39258 208.52734 C 144.23312 208.52734 143.13768 208.64099 142.09961 208.85352 C 143.41208 208.81524 144.69451 208.72163 145.93164 208.54688 C 145.74918 208.5431 145.57904 208.52734 145.39258 208.52734 z "
     style="fill:#222222;fill-opacity:1" />
  <path
     id="path24"
     d="M 72.068359 204.60742 C 67.591059 204.60742 63.439281 205.19791 59.613281 206.37891 C 55.787181 207.51791 52.470609 209.16722 49.662109 211.32422 C 46.853709 213.48122 44.655759 216.08567 43.068359 219.13867 C 41.481059 222.19167 40.685547 225.59094 40.685547 229.33594 C 40.685547 232.59194 41.276631 235.60309 42.457031 238.37109 C 43.678131 241.13909 45.469378 243.66241 47.830078 245.94141 C 50.190878 248.22141 53.221881 250.31747 56.925781 252.23047 C 60.670381 254.14347 65.006641 255.77028 69.931641 257.11328 C 73.106441 257.96828 75.750688 258.90583 77.867188 259.92383 C 80.024388 260.90083 81.775941 261.9772 83.119141 263.1582 C 84.421641 264.3792 85.336134 265.68241 85.865234 267.06641 C 86.435134 268.45041 86.720703 269.93544 86.720703 271.52344 C 86.720703 273.11044 86.395441 274.57692 85.744141 275.91992 C 85.092941 277.22192 84.156547 278.34134 82.935547 279.27734 C 81.714447 280.21334 80.208869 280.94461 78.417969 281.47461 C 77.508911 281.74937 76.524467 281.95011 75.472656 282.08203 C 76.904604 282.30377 78.297896 282.60395 79.638672 283.00781 C 82.650572 283.86281 85.356412 285.10247 87.757812 286.73047 C 89.601636 287.91827 91.262167 289.30159 92.746094 290.87305 C 93.452239 290.43328 94.131176 289.96815 94.779297 289.47266 C 97.546997 287.39666 99.704753 284.8538 101.25195 281.8418 C 102.83895 278.7888 103.63281 275.30739 103.63281 271.40039 C 103.63281 266.88239 102.59553 262.89359 100.51953 259.43359 C 98.443631 255.97459 95.654797 252.94289 92.154297 250.33789 C 89.834297 248.75089 87.291137 247.346 84.523438 246.125 C 81.755637 244.904 78.845669 243.86672 75.792969 243.01172 C 72.943769 242.23772 70.379009 241.40281 68.099609 240.50781 C 65.861009 239.61181 63.948728 238.61463 62.361328 237.51562 C 60.773928 236.45763 59.551966 235.25706 58.697266 233.91406 C 57.883166 232.57106 57.476563 231.06548 57.476562 229.39648 C 57.476562 227.80848 57.782078 226.343 58.392578 225 C 59.043778 223.616 59.980072 222.41544 61.201172 221.39844 C 62.422172 220.42144 63.908003 219.66767 65.658203 219.13867 C 67.449103 218.56867 69.482419 218.2832 71.761719 218.2832 C 74.244619 218.2832 76.402775 218.63027 78.234375 219.32227 C 80.106675 219.97327 81.673747 220.88836 82.935547 222.06836 C 84.156547 223.29036 85.072994 224.7353 85.683594 226.4043 C 86.334794 228.0733 86.69985 229.90444 86.78125 231.89844 L 103.51172 231.89844 C 103.51172 227.90944 102.73645 224.2462 101.18945 220.9082 C 99.643253 217.5712 97.48655 214.68223 94.71875 212.24023 C 91.95095 209.83823 88.634278 207.96605 84.767578 206.62305 C 80.941478 205.28005 76.708459 204.60742 72.068359 204.60742 z M 38 267.12695 C 38 271.72595 38.8748 275.7353 40.625 279.1543 C 42.4159 282.5733 44.837925 285.54536 47.890625 288.06836 C 48.416918 288.48818 48.963802 288.88639 49.519531 289.27344 C 50.56051 288.30539 51.664739 287.41706 52.835938 286.60938 C 55.156038 285.02237 57.760491 283.80031 60.650391 282.94531 C 62.654118 282.35249 64.782993 281.98047 67.021484 281.79883 C 66.431402 281.68911 65.853432 281.56241 65.291016 281.41406 C 63.174416 280.84406 61.363422 279.94756 59.857422 278.72656 C 58.310722 277.50556 57.110659 275.93839 56.255859 274.02539 C 55.401159 272.11239 54.932963 269.81295 54.851562 267.12695 L 38 267.12695 z "
     style="fill:#222222;fill-opacity:1" />
  <path
     d="M177.385 266.883H160.229C160.067 269.569 159.619 271.869 158.886 273.782C158.153 275.695 157.156 277.262 155.895 278.483C154.633 279.704 153.106 280.6 151.315 281.169C149.525 281.739 147.51 282.024 145.271 282.024C143.602 282.024 142.076 281.841 140.692 281.475C139.349 281.068 138.128 280.457 137.029 279.643C136.011 278.91 135.096 277.995 134.282 276.896C133.508 275.797 132.837 274.535 132.267 273.11C131.453 271.034 130.842 268.613 130.435 265.845C130.069 263.036 129.886 259.862 129.886 256.321V244.232C129.886 241.627 130.008 239.205 130.252 236.967C130.496 234.687 130.883 232.611 131.412 230.739C132.104 228.338 133.02 226.241 134.159 224.451C135.34 222.619 136.764 221.215 138.433 220.238C139.41 219.668 140.468 219.241 141.608 218.956C142.788 218.671 144.05 218.528 145.393 218.528C147.917 218.528 150.074 218.874 151.865 219.566C153.697 220.217 155.223 221.194 156.444 222.497C157.624 223.84 158.52 225.509 159.13 227.503C159.782 229.498 160.189 231.818 160.351 234.463H177.446C177.039 229.823 176.063 225.651 174.516 221.947C172.969 218.243 170.853 215.109 168.166 212.545C165.48 209.981 162.224 208.007 158.398 206.623C154.612 205.239 150.278 204.547 145.393 204.547C142.096 204.547 139.003 204.974 136.113 205.829C133.264 206.643 130.639 207.824 128.237 209.37C125.551 211.202 123.149 213.441 121.033 216.086C118.916 218.732 117.207 221.744 115.904 225.122C114.765 227.89 113.91 230.902 113.34 234.158C112.77 237.374 112.485 240.772 112.485 244.354V256.321C112.485 260.147 112.791 263.769 113.401 267.188C114.052 270.607 114.968 273.741 116.149 276.59C117.37 279.439 118.855 282.044 120.606 284.405C122.396 286.766 124.432 288.781 126.711 290.45C129.194 292.24 131.982 293.624 135.075 294.601C138.209 295.537 141.608 296.005 145.271 296.005C149.911 296.005 154.144 295.334 157.97 293.991C161.796 292.607 165.093 290.653 167.861 288.129C170.629 285.606 172.827 282.553 174.455 278.971C176.124 275.39 177.1 271.36 177.385 266.883Z"
     fill="#222222"
     id="path26"
     style="fill:#222222;fill-opacity:1" />
  <path
     d="M103.144 343.865V330.921C103.144 326.892 102.758 323.086 101.984 319.504C101.252 315.922 100.173 312.626 98.7483 309.614C97.4459 306.968 95.8788 304.546 94.0472 302.348C92.2563 300.15 90.1601 298.278 87.7587 296.731C85.3573 295.103 82.6505 293.862 79.6386 293.007C76.6673 292.112 73.4721 291.664 70.0531 291.664C66.6748 291.664 63.5408 292.091 60.6509 292.946C57.761 293.801 55.1561 295.022 52.836 296.609C50.4753 298.237 48.3791 300.191 46.5475 302.47C44.7566 304.75 43.2303 307.294 41.9685 310.102C40.666 313.073 39.6688 316.309 38.9769 319.81C38.3256 323.31 38 327.014 38 330.921V343.865C38 347.528 38.2849 351.008 38.8548 354.305C39.4653 357.602 40.3404 360.654 41.4801 363.463C42.7418 366.516 44.3089 369.263 46.1812 371.705C48.0535 374.107 50.17 376.162 52.5308 377.871C54.9322 379.5 57.5982 380.761 60.5288 381.657C63.4594 382.552 66.6545 383 70.1142 383C73.3704 383 76.4027 382.593 79.2112 381.779C82.0604 381.006 84.6653 379.907 87.0261 378.482C89.631 376.854 91.951 374.819 93.9862 372.377C96.0213 369.935 97.7308 367.248 99.1147 364.318C100.417 361.387 101.414 358.212 102.106 354.793C102.798 351.334 103.144 347.691 103.144 343.865ZM85.7439 330.799V343.865C85.7439 346.063 85.6218 348.179 85.3776 350.214C85.1741 352.249 84.8485 354.122 84.4007 355.831C83.8309 358.029 83.0576 360.003 82.0807 361.753C81.1446 363.463 79.9845 364.887 78.6007 366.027C77.5017 366.963 76.2399 367.676 74.8153 368.164C73.3907 368.652 71.8237 368.897 70.1142 368.897C68.3233 368.897 66.7155 368.632 65.291 368.103C63.9071 367.574 62.6657 366.821 61.5667 365.844C60.3863 364.745 59.3484 363.32 58.453 361.57C57.5982 359.779 56.947 357.805 56.4992 355.648C56.0922 353.938 55.8073 352.087 55.6445 350.092C55.4817 348.098 55.4003 346.022 55.4003 343.865V330.799C55.4003 328.52 55.4817 326.342 55.6445 324.266C55.848 322.191 56.1533 320.278 56.5603 318.527C57.0894 316.248 57.8221 314.254 58.7582 312.544C59.7351 310.835 60.9155 309.41 62.2993 308.27C63.3169 307.497 64.4566 306.907 65.7183 306.5C67.0208 306.093 68.4658 305.889 70.0531 305.889C71.7219 305.889 73.2279 306.113 74.5711 306.561C75.955 307.009 77.1964 307.639 78.2954 308.454C79.6793 309.552 80.88 310.977 81.8975 312.727C82.9151 314.437 83.7292 316.391 84.3397 318.588C84.8281 320.339 85.1741 322.252 85.3776 324.327C85.6218 326.363 85.7439 328.52 85.7439 330.799Z"
     fill="#222222"
     id="path30"
     style="fill:#222222;fill-opacity:1" />
</svg>
