<?xml version="1.0" encoding="UTF-8" standalone="no"?>
<svg
   viewBox="0 0 24 24"
   version="1.1"
   id="svg4"
   sodipodi:docname="github-2.svg"
   inkscape:version="1.1.1 (1:1.1+202109281943+c3084ef5ed)"
   xmlns:inkscape="http://www.inkscape.org/namespaces/inkscape"
   xmlns:sodipodi="http://sodipodi.sourceforge.net/DTD/sodipodi-0.dtd"
   xmlns="http://www.w3.org/2000/svg"
   xmlns:svg="http://www.w3.org/2000/svg">
  <defs
     id="defs8" />
  <sodipodi:namedview
     id="namedview6"
     pagecolor="#505050"
     bordercolor="#eeeeee"
     borderopacity="1"
     inkscape:pageshadow="0"
     inkscape:pageopacity="0"
     inkscape:pagecheckerboard="0"
     showgrid="false"
     inkscape:zoom="9.0260417"
     inkscape:cx="-14.015003"
     inkscape:cy="24.983266"
     inkscape:window-width="2560"
     inkscape:window-height="1016"
     inkscape:window-x="0"
     inkscape:window-y="27"
     inkscape:window-maximized="1"
     inkscape:current-layer="svg4" />
  <path
     d="m 9.5866903,20.735835 v -2.234 c -3.338,0.726 -4.033,-1.416 -4.033,-1.416 -0.546,-1.387 -1.333,-1.756 -1.333,-1.756 -1.089,-0.745 0.083,-0.729 0.083,-0.729 1.205,0.084 1.839,1.237 1.839,1.237 1.07,1.834 2.807,1.304 3.492,0.997 0.107,-0.775 0.4179997,-1.305 0.7619997,-1.604 -2.6649997,-0.305 -5.4669997,-1.334 -5.4669997,-5.9309998 0,-1.311 0.469,-2.381 1.236,-3.221 -0.124,-0.303 -0.535,-1.524 0.117,-3.176 0,0 1.008,-0.322 3.301,1.23 0.9569997,-0.266 1.9829997,-0.399 3.0029997,-0.404 1.02,0.005 2.047,0.138 3.006,0.404 2.291,-1.552 3.297,-1.23 3.297,-1.23 0.653,1.653 0.242,2.874 0.118,3.176 0.77,0.84 1.235,1.911 1.235,3.221 0,4.6089998 -2.807,5.6239998 -5.479,5.9209998 0.43,0.372 0.823,1.102 0.823,2.222 v 3.293 c -3.266664,0.8753 -5.9999997,0 -5.9999997,0 z"
     id="path2"
     sodipodi:nodetypes="ccccccccscccccccscscc"
     style="fill: white" />
</svg>
