<?xml version="1.0" encoding="UTF-8" standalone="no"?>
<svg
   width="20"
   height="18"
   viewBox="0 0 20 18"
   fill="none"
   version="1.1"
   id="svg4"
   sodipodi:docname="jobs.svg"
   inkscape:version="1.1.1 (1:1.1+202109281949+c3084ef5ed)"
   xmlns:inkscape="http://www.inkscape.org/namespaces/inkscape"
   xmlns:sodipodi="http://sodipodi.sourceforge.net/DTD/sodipodi-0.dtd"
   xmlns="http://www.w3.org/2000/svg"
   xmlns:svg="http://www.w3.org/2000/svg">
  <defs
     id="defs8" />
  <sodipodi:namedview
     id="namedview6"
     pagecolor="#505050"
     bordercolor="#eeeeee"
     borderopacity="1"
     inkscape:pageshadow="0"
     inkscape:pageopacity="0"
     inkscape:pagecheckerboard="0"
     showgrid="false"
     inkscape:zoom="39.944444"
     inkscape:cx="9.9888734"
     inkscape:cy="9"
     inkscape:window-width="2560"
     inkscape:window-height="1016"
     inkscape:window-x="0"
     inkscape:window-y="27"
     inkscape:window-maximized="1"
     inkscape:current-layer="svg4" />
  <path
     fill-rule="evenodd"
     clip-rule="evenodd"
     d="M5.24997 3.63098V2.4612C5.24997 1.59495 5.88371 0.859058 6.74037 0.730559L7.96029 0.547572C9.31251 0.344739 10.6874 0.344738 12.0397 0.547572L13.2596 0.730559C14.1162 0.859058 14.75 1.59495 14.75 2.4612V3.63098L16.464 3.76933C17.7764 3.87527 18.8469 4.86341 19.0574 6.16313C19.5226 9.03566 19.5226 11.9643 19.0574 14.8369C18.8469 16.1366 17.7764 17.1247 16.464 17.2307L14.5921 17.3818C11.5356 17.6285 8.46429 17.6285 5.40784 17.3818L3.53592 17.2307C2.22354 17.1247 1.153 16.1366 0.942519 14.8369C0.477331 11.9643 0.477331 9.03566 0.942519 6.16313C1.153 4.86341 2.22354 3.87527 3.53592 3.76933L5.24997 3.63098ZM8.1828 2.03098C9.38751 1.85027 10.6124 1.85027 11.8171 2.03098L13.0371 2.21396C13.1594 2.23232 13.25 2.33745 13.25 2.4612V3.5258C11.0851 3.40233 8.91488 3.40233 6.74997 3.5258V2.4612C6.74997 2.33745 6.8405 2.23232 6.96288 2.21396L8.1828 2.03098ZM5.52853 5.11337C8.50464 4.87314 11.4953 4.87314 14.4714 5.11337L16.3433 5.26447C16.9675 5.31485 17.4766 5.78479 17.5767 6.40292C17.639 6.78785 17.6925 7.17384 17.7372 7.5606C12.8596 9.9624 7.14035 9.9624 2.26274 7.56061C2.3074 7.17385 2.36089 6.78785 2.42323 6.40292C2.52333 5.78479 3.03246 5.31485 3.65661 5.26447L5.52853 5.11337ZM2.12886 9.15666C7.12826 11.4304 12.8717 11.4304 17.8711 9.15665C17.9664 10.9728 17.8683 12.7966 17.5767 14.5971C17.4766 15.2152 16.9675 15.6852 16.3433 15.7355L14.4714 15.8866C11.4953 16.1269 8.50465 16.1269 5.52853 15.8866L3.65661 15.7355C3.03246 15.6852 2.52333 15.2152 2.42323 14.5971C2.13166 12.7966 2.03353 10.9728 2.12886 9.15666Z"
     fill="#222222"
     id="path2"
     style="fill:#222222" />
</svg>
