<?xml version="1.0" encoding="UTF-8" standalone="no"?>
<svg
   version="1.1"
   id="svg4"
   sodipodi:docname="twitter.svg"
   width="24"
   height="19.504"
   inkscape:version="1.1.1 (1:1.1+202109281949+c3084ef5ed)"
   xmlns:inkscape="http://www.inkscape.org/namespaces/inkscape"
   xmlns:sodipodi="http://sodipodi.sourceforge.net/DTD/sodipodi-0.dtd"
   xmlns="http://www.w3.org/2000/svg"
   xmlns:svg="http://www.w3.org/2000/svg">
  <defs
     id="defs8" />
  <sodipodi:namedview
     id="namedview6"
     pagecolor="#505050"
     bordercolor="#eeeeee"
     borderopacity="1"
     inkscape:pageshadow="0"
     inkscape:pageopacity="0"
     inkscape:pagecheckerboard="0"
     showgrid="false"
     inkscape:zoom="4.7933333"
     inkscape:cx="150"
     inkscape:cy="47.670376"
     inkscape:window-width="2560"
     inkscape:window-height="1016"
     inkscape:window-x="1920"
     inkscape:window-y="27"
     inkscape:window-maximized="1"
     inkscape:current-layer="svg4" />
  <path
     d="M 24,2.309 C 23.117,2.701 22.168,2.965 21.172,3.084 22.189,2.475 22.97,1.51 23.337,0.36 22.386,0.924 21.332,1.334 20.21,1.555 19.313,0.598 18.032,0 16.616,0 13.437,0 11.101,2.966 11.819,6.045 7.728,5.84 4.1,3.88 1.671,0.901 0.381,3.114 1.002,6.009 3.194,7.475 2.388,7.449 1.628,7.228 0.965,6.859 c -0.054,2.281 1.581,4.415 3.949,4.89 -0.693,0.188 -1.452,0.232 -2.224,0.084 0.626,1.956 2.444,3.379 4.6,3.419 -2.07,1.623 -4.678,2.348 -7.29,2.04 2.179,1.397 4.768,2.212 7.548,2.212 9.142,0 14.307,-7.721 13.995,-14.646 C 22.505,4.163 23.34,3.296 24,2.309 Z"
     id="path2"
     style="fill: white" />
</svg>
